<svg width="252" height="30" viewBox="0 0 252 30" fill="none" xmlns="http://www.w3.org/2000/svg">
<path d="M27.5234 7.84766L24.1836 9.25391C23.9232 8.40755 23.5716 7.63281 23.1289 6.92969C22.6992 6.22656 22.1784 5.6276 21.5664 5.13281C20.9674 4.625 20.2839 4.23438 19.5156 3.96094C18.7474 3.67448 17.9076 3.53125 16.9961 3.53125C16.0195 3.53125 15.1211 3.69401 14.3008 4.01953C13.4935 4.33203 12.7643 4.76823 12.1133 5.32812C11.4753 5.88802 10.9154 6.53906 10.4336 7.28125C9.95182 8.02344 9.54818 8.81771 9.22266 9.66406C8.89714 10.4974 8.65625 11.3633 8.5 12.2617C8.34375 13.1602 8.26562 14.0391 8.26562 14.8984C8.26562 16.2656 8.42188 17.6263 8.73438 18.9805C9.0599 20.3346 9.56771 21.5521 10.2578 22.6328C10.9609 23.7135 11.8659 24.5924 12.9727 25.2695C14.0794 25.9336 15.4206 26.2656 16.9961 26.2656C17.8294 26.2656 18.6172 26.1289 19.3594 25.8555C20.1016 25.569 20.7721 25.1849 21.3711 24.7031C21.9831 24.2083 22.5169 23.6289 22.9727 22.9648C23.4284 22.3008 23.793 21.5846 24.0664 20.8164L27.4453 22.1641C26.9505 23.401 26.2734 24.4883 25.4141 25.4258C24.5547 26.3503 23.5716 27.1185 22.4648 27.7305C21.3711 28.3424 20.1927 28.7982 18.9297 29.0977C17.6797 29.4102 16.4167 29.5664 15.1406 29.5664C13.7604 29.5664 12.4323 29.3971 11.1562 29.0586C9.89323 28.7201 8.71484 28.2383 7.62109 27.6133C6.52734 26.9883 5.53125 26.2331 4.63281 25.3477C3.7474 24.4622 2.98568 23.4792 2.34766 22.3984C1.72266 21.3177 1.23438 20.1458 0.882812 18.8828C0.544271 17.6068 0.375 16.2786 0.375 14.8984C0.375 13.5182 0.544271 12.1966 0.882812 10.9336C1.23438 9.65755 1.72266 8.47917 2.34766 7.39844C2.98568 6.30469 3.7474 5.3151 4.63281 4.42969C5.53125 3.54427 6.52734 2.78906 7.62109 2.16406C8.71484 1.53906 9.89323 1.05729 11.1562 0.71875C12.4323 0.380208 13.7604 0.210938 15.1406 0.210938C16.4688 0.210938 17.7643 0.367188 19.0273 0.679688C20.3034 0.992188 21.4883 1.46745 22.582 2.10547C23.6758 2.73047 24.6458 3.52474 25.4922 4.48828C26.3516 5.4388 27.0286 6.55859 27.5234 7.84766ZM61.4102 14.8984C61.4102 17.1641 61.0195 19.2083 60.2383 21.0312C59.457 22.8411 58.3763 24.3776 56.9961 25.6406C55.6159 26.9036 53.9818 27.8737 52.0938 28.5508C50.2057 29.2279 48.1615 29.5664 45.9609 29.5664C43.7604 29.5664 41.7161 29.2279 39.8281 28.5508C37.9401 27.8737 36.306 26.9036 34.9258 25.6406C33.5456 24.3776 32.4648 22.8411 31.6836 21.0312C30.9023 19.2083 30.5117 17.1641 30.5117 14.8984C30.5117 12.5938 30.8958 10.5365 31.6641 8.72656C32.4453 6.90365 33.5195 5.36719 34.8867 4.11719C36.2669 2.85417 37.901 1.89062 39.7891 1.22656C41.6771 0.549479 43.7344 0.210938 45.9609 0.210938C48.1875 0.210938 50.2448 0.549479 52.1328 1.22656C54.0208 1.89062 55.6484 2.85417 57.0156 4.11719C58.3958 5.36719 59.4701 6.90365 60.2383 8.72656C61.0195 10.5365 61.4102 12.5938 61.4102 14.8984ZM53.5195 14.8984C53.5195 14.0391 53.4805 13.1602 53.4023 12.2617C53.3242 11.3633 53.181 10.4909 52.9727 9.64453C52.7643 8.79818 52.4779 8.00391 52.1133 7.26172C51.7617 6.51953 51.306 5.875 50.7461 5.32812C50.1862 4.76823 49.5091 4.33203 48.7148 4.01953C47.9336 3.69401 47.0156 3.53125 45.9609 3.53125C44.8932 3.53125 43.9622 3.69401 43.168 4.01953C42.3737 4.33203 41.6966 4.76172 41.1367 5.30859C40.5768 5.85547 40.1211 6.5 39.7695 7.24219C39.418 7.98438 39.138 8.77865 38.9297 9.625C38.7344 10.4583 38.5977 11.3307 38.5195 12.2422C38.4414 13.1406 38.4023 14.026 38.4023 14.8984C38.4023 15.7578 38.4414 16.6367 38.5195 17.5352C38.5977 18.4336 38.7409 19.306 38.9492 20.1523C39.1576 20.9857 39.4375 21.7734 39.7891 22.5156C40.1536 23.2578 40.6159 23.9089 41.1758 24.4688C41.7357 25.0156 42.4062 25.4518 43.1875 25.7773C43.9818 26.1029 44.9062 26.2656 45.9609 26.2656C46.9896 26.2656 47.888 26.1029 48.6562 25.7773C49.4245 25.4388 50.0885 24.9896 50.6484 24.4297C51.2083 23.8568 51.6706 23.1992 52.0352 22.457C52.4128 21.7018 52.7057 20.9076 52.9141 20.0742C53.1354 19.2279 53.2917 18.362 53.3828 17.4766C53.474 16.5911 53.5195 15.7318 53.5195 14.8984ZM86.4297 29H66.2344V0.875H73.9883V25.4258H86.4297V29ZM118.051 14.8984C118.051 17.1641 117.66 19.2083 116.879 21.0312C116.098 22.8411 115.017 24.3776 113.637 25.6406C112.257 26.9036 110.622 27.8737 108.734 28.5508C106.846 29.2279 104.802 29.5664 102.602 29.5664C100.401 29.5664 98.3568 29.2279 96.4688 28.5508C94.5807 27.8737 92.9466 26.9036 91.5664 25.6406C90.1862 24.3776 89.1055 22.8411 88.3242 21.0312C87.543 19.2083 87.1523 17.1641 87.1523 14.8984C87.1523 12.5938 87.5365 10.5365 88.3047 8.72656C89.0859 6.90365 90.1602 5.36719 91.5273 4.11719C92.9076 2.85417 94.5417 1.89062 96.4297 1.22656C98.3177 0.549479 100.375 0.210938 102.602 0.210938C104.828 0.210938 106.885 0.549479 108.773 1.22656C110.661 1.89062 112.289 2.85417 113.656 4.11719C115.036 5.36719 116.111 6.90365 116.879 8.72656C117.66 10.5365 118.051 12.5938 118.051 14.8984ZM110.16 14.8984C110.16 14.0391 110.121 13.1602 110.043 12.2617C109.965 11.3633 109.822 10.4909 109.613 9.64453C109.405 8.79818 109.118 8.00391 108.754 7.26172C108.402 6.51953 107.947 5.875 107.387 5.32812C106.827 4.76823 106.15 4.33203 105.355 4.01953C104.574 3.69401 103.656 3.53125 102.602 3.53125C101.534 3.53125 100.603 3.69401 99.8086 4.01953C99.0143 4.33203 98.3372 4.76172 97.7773 5.30859C97.2174 5.85547 96.7617 6.5 96.4102 7.24219C96.0586 7.98438 95.7786 8.77865 95.5703 9.625C95.375 10.4583 95.2383 11.3307 95.1602 12.2422C95.082 13.1406 95.043 14.026 95.043 14.8984C95.043 15.7578 95.082 16.6367 95.1602 17.5352C95.2383 18.4336 95.3815 19.306 95.5898 20.1523C95.7982 20.9857 96.0781 21.7734 96.4297 22.5156C96.7943 23.2578 97.2565 23.9089 97.8164 24.4688C98.3763 25.0156 99.0469 25.4518 99.8281 25.7773C100.622 26.1029 101.547 26.2656 102.602 26.2656C103.63 26.2656 104.529 26.1029 105.297 25.7773C106.065 25.4388 106.729 24.9896 107.289 24.4297C107.849 23.8568 108.311 23.1992 108.676 22.457C109.053 21.7018 109.346 20.9076 109.555 20.0742C109.776 19.2279 109.932 18.362 110.023 17.4766C110.115 16.5911 110.16 15.7318 110.16 14.8984ZM130.629 29H122.875V0.875H136.703C138.005 0.875 139.262 1.03125 140.473 1.34375C141.684 1.64323 142.751 2.125 143.676 2.78906C144.613 3.4401 145.355 4.28646 145.902 5.32812C146.462 6.36979 146.742 7.63281 146.742 9.11719C146.742 10.276 146.495 11.3698 146 12.3984C145.518 13.4141 144.867 14.3255 144.047 15.1328C143.24 15.9271 142.309 16.5911 141.254 17.125C140.199 17.6458 139.105 17.9909 137.973 18.1602C138.48 19.0195 139.008 19.8333 139.555 20.6016C140.115 21.3698 140.674 22.0924 141.234 22.7695C141.807 23.4336 142.374 24.0521 142.934 24.625C143.493 25.1849 144.027 25.6992 144.535 26.168C145.733 27.2617 146.918 28.2057 148.09 29H138.422C137.641 28.2578 136.898 27.3659 136.195 26.3242C135.596 25.4388 134.991 24.3451 134.379 23.043C133.78 21.7279 133.318 20.2109 132.992 18.4922H130.629V29ZM138.871 9.11719C138.871 7.22917 138.409 5.84245 137.484 4.95703C136.573 4.07161 135.199 3.62891 133.363 3.62891H130.629V15.8359H133.363C134.34 15.8359 135.173 15.6536 135.863 15.2891C136.566 14.9115 137.139 14.4167 137.582 13.8047C138.025 13.1797 138.35 12.4635 138.559 11.6562C138.767 10.849 138.871 10.0026 138.871 9.11719ZM171.938 29H151.742V0.875H159.496V25.4258H171.938V29ZM195.805 29H175.609V0.875H195.805V4.46875H183.363V13.1602H192.973V16.7344H183.363V25.4062H195.805V29ZM223.656 20.4062C223.656 21.6172 223.5 22.6849 223.188 23.6094C222.888 24.5339 222.458 25.3346 221.898 26.0117C221.352 26.6888 220.701 27.2552 219.945 27.7109C219.19 28.1667 218.363 28.5312 217.465 28.8047C216.579 29.0781 215.635 29.2734 214.633 29.3906C213.643 29.5078 212.634 29.5664 211.605 29.5664C210.251 29.5664 209.001 29.4622 207.855 29.2539C206.71 29.0586 205.629 28.7461 204.613 28.3164C203.611 27.8737 202.641 27.3073 201.703 26.6172C200.779 25.9271 199.854 25.0872 198.93 24.0977L202.914 20.0547C203.279 20.9531 203.78 21.7865 204.418 22.5547C205.056 23.3099 205.753 23.9609 206.508 24.5078C207.276 25.0547 208.07 25.4844 208.891 25.7969C209.711 26.1094 210.486 26.2656 211.215 26.2656C212.074 26.2656 212.882 26.207 213.637 26.0898C214.392 25.9596 215.049 25.7513 215.609 25.4648C216.169 25.1784 216.605 24.8008 216.918 24.332C217.243 23.8503 217.406 23.2513 217.406 22.5352C217.406 21.9883 217.283 21.5195 217.035 21.1289C216.788 20.7383 216.462 20.4062 216.059 20.1328C215.668 19.8464 215.219 19.6055 214.711 19.4102C214.203 19.2148 213.682 19.0521 213.148 18.9219C212.628 18.7786 212.113 18.6549 211.605 18.5508C211.098 18.4336 210.648 18.3164 210.258 18.1992C209.49 17.9779 208.689 17.7435 207.855 17.4961C207.022 17.2357 206.202 16.9427 205.395 16.6172C204.587 16.2917 203.819 15.9206 203.09 15.5039C202.374 15.0742 201.742 14.5729 201.195 14C200.648 13.4141 200.212 12.7435 199.887 11.9883C199.561 11.2201 199.398 10.3411 199.398 9.35156C199.398 8.16667 199.542 7.11849 199.828 6.20703C200.128 5.28255 200.544 4.48177 201.078 3.80469C201.612 3.1276 202.243 2.5612 202.973 2.10547C203.702 1.63672 204.503 1.26562 205.375 0.992188C206.247 0.705729 207.172 0.503906 208.148 0.386719C209.138 0.25651 210.147 0.191406 211.176 0.191406C212.582 0.191406 213.858 0.321615 215.004 0.582031C216.163 0.842448 217.23 1.21354 218.207 1.69531C219.184 2.17708 220.076 2.75651 220.883 3.43359C221.703 4.09766 222.471 4.83984 223.188 5.66016L219.203 9.70312C218.891 8.76562 218.454 7.91927 217.895 7.16406C217.348 6.40885 216.736 5.76432 216.059 5.23047C215.382 4.68359 214.672 4.26693 213.93 3.98047C213.188 3.68099 212.471 3.53125 211.781 3.53125C210.883 3.53125 210.056 3.59635 209.301 3.72656C208.546 3.84375 207.895 4.04557 207.348 4.33203C206.814 4.60547 206.397 4.98307 206.098 5.46484C205.798 5.93359 205.648 6.51953 205.648 7.22266C205.648 7.78255 205.759 8.25781 205.98 8.64844C206.202 9.03906 206.495 9.37109 206.859 9.64453C207.237 9.91797 207.66 10.1458 208.129 10.3281C208.598 10.4974 209.079 10.6471 209.574 10.7773C210.082 10.9076 210.577 11.0247 211.059 11.1289C211.553 11.2201 212.003 11.3242 212.406 11.4414C213.188 11.6628 214.008 11.8971 214.867 12.1445C215.727 12.3919 216.573 12.6849 217.406 13.0234C218.24 13.349 219.034 13.7266 219.789 14.1562C220.544 14.5859 221.208 15.1003 221.781 15.6992C222.354 16.2852 222.81 16.9688 223.148 17.75C223.487 18.5182 223.656 19.4036 223.656 20.4062ZM251.547 20.4062C251.547 21.6172 251.391 22.6849 251.078 23.6094C250.779 24.5339 250.349 25.3346 249.789 26.0117C249.242 26.6888 248.591 27.2552 247.836 27.7109C247.081 28.1667 246.254 28.5312 245.355 28.8047C244.47 29.0781 243.526 29.2734 242.523 29.3906C241.534 29.5078 240.525 29.5664 239.496 29.5664C238.142 29.5664 236.892 29.4622 235.746 29.2539C234.6 29.0586 233.52 28.7461 232.504 28.3164C231.501 27.8737 230.531 27.3073 229.594 26.6172C228.669 25.9271 227.745 25.0872 226.82 24.0977L230.805 20.0547C231.169 20.9531 231.671 21.7865 232.309 22.5547C232.947 23.3099 233.643 23.9609 234.398 24.5078C235.167 25.0547 235.961 25.4844 236.781 25.7969C237.602 26.1094 238.376 26.2656 239.105 26.2656C239.965 26.2656 240.772 26.207 241.527 26.0898C242.283 25.9596 242.94 25.7513 243.5 25.4648C244.06 25.1784 244.496 24.8008 244.809 24.332C245.134 23.8503 245.297 23.2513 245.297 22.5352C245.297 21.9883 245.173 21.5195 244.926 21.1289C244.678 20.7383 244.353 20.4062 243.949 20.1328C243.559 19.8464 243.109 19.6055 242.602 19.4102C242.094 19.2148 241.573 19.0521 241.039 18.9219C240.518 18.7786 240.004 18.6549 239.496 18.5508C238.988 18.4336 238.539 18.3164 238.148 18.1992C237.38 17.9779 236.579 17.7435 235.746 17.4961C234.913 17.2357 234.092 16.9427 233.285 16.6172C232.478 16.2917 231.71 15.9206 230.98 15.5039C230.264 15.0742 229.633 14.5729 229.086 14C228.539 13.4141 228.103 12.7435 227.777 11.9883C227.452 11.2201 227.289 10.3411 227.289 9.35156C227.289 8.16667 227.432 7.11849 227.719 6.20703C228.018 5.28255 228.435 4.48177 228.969 3.80469C229.503 3.1276 230.134 2.5612 230.863 2.10547C231.592 1.63672 232.393 1.26562 233.266 0.992188C234.138 0.705729 235.062 0.503906 236.039 0.386719C237.029 0.25651 238.038 0.191406 239.066 0.191406C240.473 0.191406 241.749 0.321615 242.895 0.582031C244.053 0.842448 245.121 1.21354 246.098 1.69531C247.074 2.17708 247.966 2.75651 248.773 3.43359C249.594 4.09766 250.362 4.83984 251.078 5.66016L247.094 9.70312C246.781 8.76562 246.345 7.91927 245.785 7.16406C245.238 6.40885 244.626 5.76432 243.949 5.23047C243.272 4.68359 242.562 4.26693 241.82 3.98047C241.078 3.68099 240.362 3.53125 239.672 3.53125C238.773 3.53125 237.947 3.59635 237.191 3.72656C236.436 3.84375 235.785 4.04557 235.238 4.33203C234.704 4.60547 234.288 4.98307 233.988 5.46484C233.689 5.93359 233.539 6.51953 233.539 7.22266C233.539 7.78255 233.65 8.25781 233.871 8.64844C234.092 9.03906 234.385 9.37109 234.75 9.64453C235.128 9.91797 235.551 10.1458 236.02 10.3281C236.488 10.4974 236.97 10.6471 237.465 10.7773C237.973 10.9076 238.467 11.0247 238.949 11.1289C239.444 11.2201 239.893 11.3242 240.297 11.4414C241.078 11.6628 241.898 11.8971 242.758 12.1445C243.617 12.3919 244.464 12.6849 245.297 13.0234C246.13 13.349 246.924 13.7266 247.68 14.1562C248.435 14.5859 249.099 15.1003 249.672 15.6992C250.245 16.2852 250.701 16.9688 251.039 17.75C251.378 18.5182 251.547 19.4036 251.547 20.4062Z" fill="black"/>
</svg>
